<mxfile host="65bd71144e">
    <diagram id="v7UZb0TqCejA986OkopB" name="Page-1">
        <mxGraphModel dx="706" dy="679" grid="1" gridSize="10" guides="1" tooltips="1" connect="1" arrows="1" fold="1" page="1" pageScale="1" pageWidth="827" pageHeight="1169" math="0" shadow="0">
            <root>
                <mxCell id="0"/>
                <mxCell id="1" parent="0"/>
                <mxCell id="17" value="DIAGRAMA N-TIER E IMPLEMENTACION" style="swimlane;childLayout=stackLayout;resizeParent=1;resizeParentMax=0;horizontal=1;startSize=20;horizontalStack=0;html=1;" parent="1" vertex="1">
                    <mxGeometry x="20" y="60" width="480" height="380" as="geometry"/>
                </mxCell>
                <mxCell id="18" value="USER INTERFAZ&amp;nbsp;" style="swimlane;startSize=20;horizontal=0;html=1;fillColor=#f0a30a;fontColor=#000000;strokeColor=#BD7000;" parent="17" vertex="1">
                    <mxGeometry y="20" width="480" height="120" as="geometry"/>
                </mxCell>
                <mxCell id="21" value="UI&lt;br&gt;Component" style="rounded=1;whiteSpace=wrap;html=1;" parent="18" vertex="1">
                    <mxGeometry x="40" y="10" width="120" height="60" as="geometry"/>
                </mxCell>
                <mxCell id="22" value="Controller&lt;br&gt;UIC" style="rounded=1;whiteSpace=wrap;html=1;" parent="18" vertex="1">
                    <mxGeometry x="180" y="10" width="120" height="60" as="geometry"/>
                </mxCell>
                <mxCell id="23" value="External Systems" style="rounded=1;whiteSpace=wrap;html=1;" parent="18" vertex="1">
                    <mxGeometry x="310" y="10" width="150" height="60" as="geometry"/>
                </mxCell>
                <mxCell id="19" value="BUSINESS" style="swimlane;startSize=20;horizontal=0;html=1;fillColor=#60a917;fontColor=#ffffff;strokeColor=#2D7600;" parent="17" vertex="1">
                    <mxGeometry y="140" width="480" height="120" as="geometry"/>
                </mxCell>
                <mxCell id="25" value="Bussiness &lt;br&gt;Logic&lt;br&gt;" style="rounded=1;whiteSpace=wrap;html=1;" parent="19" vertex="1">
                    <mxGeometry x="40" y="25" width="120" height="60" as="geometry"/>
                </mxCell>
                <mxCell id="49" value="Bussiness &lt;br&gt;Entities" style="rounded=1;whiteSpace=wrap;html=1;" vertex="1" parent="19">
                    <mxGeometry x="210" y="25" width="120" height="60" as="geometry"/>
                </mxCell>
                <mxCell id="20" value="DATA" style="swimlane;startSize=20;horizontal=0;html=1;fillColor=#a20025;fontColor=#ffffff;strokeColor=#6F0000;" parent="17" vertex="1">
                    <mxGeometry y="260" width="480" height="120" as="geometry"/>
                </mxCell>
                <mxCell id="24" value="Data Access Component" style="rounded=1;whiteSpace=wrap;html=1;" parent="20" vertex="1">
                    <mxGeometry x="170" y="30" width="120" height="60" as="geometry"/>
                </mxCell>
                <mxCell id="28" value="Data&lt;br&gt;&amp;nbsp;Helper" style="rounded=1;whiteSpace=wrap;html=1;" parent="20" vertex="1">
                    <mxGeometry x="30" y="30" width="120" height="60" as="geometry"/>
                </mxCell>
                <mxCell id="29" value="Service Agent" style="rounded=1;whiteSpace=wrap;html=1;" parent="20" vertex="1">
                    <mxGeometry x="310" y="30" width="120" height="60" as="geometry"/>
                </mxCell>
                <mxCell id="34" value="" style="shape=card;whiteSpace=wrap;html=1;fillColor=#1ba1e2;fontColor=#ffffff;strokeColor=#006EAF;" parent="1" vertex="1">
                    <mxGeometry x="530" y="90" width="210" height="370" as="geometry"/>
                </mxCell>
                <mxCell id="35" value="FRAMEWORK" style="shape=parallelogram;perimeter=parallelogramPerimeter;whiteSpace=wrap;html=1;fixedSize=1;fillColor=#1ba1e2;fontColor=#ffffff;strokeColor=#006EAF;" parent="1" vertex="1">
                    <mxGeometry x="580" y="110" width="120" height="40" as="geometry"/>
                </mxCell>
                <mxCell id="36" value="APP CONFIGURATION" style="rounded=1;whiteSpace=wrap;html=1;fillColor=#60a917;fontColor=#ffffff;strokeColor=#2D7600;" parent="1" vertex="1">
                    <mxGeometry x="555" y="180" width="160" height="70" as="geometry"/>
                </mxCell>
                <mxCell id="37" value="APP EXCEPTION" style="rounded=1;whiteSpace=wrap;html=1;fillColor=#60a917;fontColor=#ffffff;strokeColor=#2D7600;" parent="1" vertex="1">
                    <mxGeometry x="555" y="270" width="160" height="70" as="geometry"/>
                </mxCell>
                <mxCell id="50" value="" style="shape=image;verticalLabelPosition=bottom;labelBackgroundColor=default;verticalAlign=top;aspect=fixed;imageAspect=0;image=data:image/png,iVBORw0KGgoAAAANSUhEUgAAANkAAABuCAYAAACqcba7AAAgAElEQVR4nO2dd3hc5Zm379PPdI2q1WXJvWIbF0wxJRC6gVATSAibJZvdTU928212N9cm2WRTNmyySwJkUzYJJGB6AgE2FLNgisFg4ypLtuSiLo2mz5z6/TGyLGPjQmYkGeb2peuSz8yc885ofud93ud9iuC6rkuRIkUKhjjRAyhS5L1OUWRFihSYosiKFCkwRZEVKVJgiiIrUqTAFEVWpEiBkSfiovH+fpLdXRixKGY0juvYEzGMIkWOjSShBgKowSD+6hr8lZUnfIpxEZltGGSGI+x/+SWGtm0l1dONKMmIqooaCCIoE6L1IkWOiWvZmPEYdjaLY1t4K6sonTOP2hWnoYfDSKp6zHMIhd6Mjnd10fXKS/RteB01EKBs5mwCzVPx1zeg+fzIilLIyxcp8mdjmiZGIkFy/35iHe0MbdtONhal8pRFVK84jWBt3VFfX1CRDXd0sPnnP0WQFRrOOZeK+QvQS0oKdbkiRcaF9PAwA5s3se+557CNLHNvvoVwc8s7Pr8gIrMti57X1rPzwfupXLSI5ktXo/n9CIKQ70sVKTIhuK6La5rsePhBete/yvSrrqZ66TJE+fClT0EWQwNbt9D+yENULz+NaZevRiqahEXeYwiCgKCqTF99JZKq0vbwQ8g+H1ULFh723LyLLNHbS+vvfkv5/AU0X3xxUWBF3tPImsbUCy7EzmTYce9v0UvLCNUdukbL6z6ZlcnQ/siDeKZU03Llh1A83nyevkiRSYni9TLz2usJ1Nez6/ePYKbThzyeV5FF2nYy3N5O0wcvRPN48nnqIkUmNaIoUn/uB4h17KZ/6xZwnIOP5esiZibDvnUvEmiaSkljY75OW6TISUNJQyPBlml0v7QO0zBGj+dNZEY8RrxzN3UrT0fW9XydtkiRkwZZ16k9bSWJfXsxE4nR43kT2fCePQB4Kk487KRIkfcK3qopCJLEYNvO0WN5E1msrY1ATS3edxHbVaTIewVPaSnBhgZiu9pHj+VNZJlIBC1cinSEzbgiRd4vSLKMXlpGdmho9Fj+HB+JGIo/kK/TFXmPkkqnGYoME43FyGazEz2cgqAGghix2Oj/8zbt2IaBpGn5Ol2RkwDbtnEcB9eFbNYglU7jujbReIK29r2YZhYQABdBkBAEMEwTw8iCC5Ikomk6uq4hChKWbSFJIiG/n+raSjRFRZYldF1H13QEIRdpIYqTOw1S1HScbGb0/3m17YqxieA6DtHubjKJBLZpYqXTmNks2Xgcx7Kw7VzunCgISIqCrGlIqoYeDCDKMorHg7e0FN8kDaROpdKkM1lisTi9fX3s3d+DaZrYlk06m0EUwLIsLNvGdRwEQUCSRVwXXMeFA0JBwMFFliXCJSXIkkRPbz/xeBzLcXBsB9ux0TWdcEkJoVCAYCBITXUVZaVhwiUhJElEVdVJJ7q366C4gMoDjm2z65VXSPb3s/e11+nc8DrpSATXtDHjCdxUlszQMLZpIhh27t4uiQiqgujVUDw6WmkYyaMheTQCU6bQsvJ0ahbMp6ylhbK6o6dSjAeZTIa2XR10dffgupBIJrEdB9dxyWTTRIaGSabSWJaJ7Tg4jouLiyLLqKqK3+/F7/WhKgqSLCFJMrIsIksyoiQhSiKNjfXgujiui207mKaJaRhkDYPIcITt21uJJxOoikpTYz2nLFhAXV0NZeEQ2iS2oooiexdYloWRSLDlySfpXPcSu9etI97VjWyAE03hMUU8aIhIeDiw8PUBArl7nAC2i5sG0i5g4+4bAAQMTLrZSOfv/4QQ9CD7PEyZO5eqeXOYdeGFNJ5yCorHgyhJ4/JeXdelt7efTZu3MTgUwe/Phcr1DwzS3dNDIpkia2SxLWfUBBRFEUEUESURy7LJZA3S6TRRJYaqqHh9HnRdR5FlZFlGkiQkWUKWpNzvkpSbpRQvUiCAKImIgkhDXQOpdJKhoQgb3nyTDW9upLm5mcsuupDKijJCQT/yJHS8Tb4RTXL2b97MtiefZOOaB+h75Q186HhQmYIHCRETHzYOpuBgulkcXGwcLHJmooONOOafjIiAgISIKqhoroyPEoSkgJ10MEnT17aWjkee4vlvf5/ZV1/BgiuuYOa55xCsqir4+923bz+vvvYmDhAKBdi2Yye7OjuJx5OIojAqKlHI/RxOLpPKcVwMM2dGZk0DSYqjqhqaqqAoCqqaW39JojRGeDKyJOR+FyVESSIYCBIuCdPU1Ejnnj3saN3J79Y8wIeuvALHcagoLy34Z3KiFEV2nKTjcd569FGeu+0/SG5qw2+qNFKFACTIMCQnSFsZLNGheulivBWl6CUhvOEwqs+H6vUSHNlDdEyT+MAAmXgc2zQxMxkSPT0MbNlBpqsPMiYSEgHBh89VmUIpNjZpx6Dv/md49IlnabjgLC75+tepmT27oO+7t28Ay7YRBIFX1r9O++5OyIPzwXVdDMPAsiwk2UDJmihybkZTFWVkVpORZHHUtJREGUkSR34kGusbqK6awltbthKNxigNh/L0rvNLUWTHQSoW40/f+x6v/uS/CQ8KVFOCi0u3GMEOqlTMmc3Mc8+mavYs6hcswFdWhqQoiIqCJMsIkoQgCCgH1g2ui2kYOLYNrovrOFiGgZFMEu/vp6+9nfa1z9P9xka623ahDyQJuz586PgcHSvm0PXg0/yuq5vLv/NvtKxciVCgxb9hWvT1DeAP+EhlMsiyjGW/rfCRC5yAz8t9+0tcsCwTx7ERLTEnvBGzUR4xHSVJRpZGRDZiWoojM9yypcsoCYfJGGZe3nO+KYrsOHj9vvvYcOcvqR7S0JCJkWKgxGThh29k4dVX07Jy5UEBHQ9jBTeWsjJKGxpoXLKEpddeC8Du9et55nvfo/OptVRFNXQ0FCRqnDC967bywN98mpvvv4+q6dPz9G4Pxe/zEo1FSafTNNbVEg6FGBwexsgaGKaBbeW/0pjr5sxLcAAX2xGQbAdLsEadJD6vF0EU8fgCeHQPff0RqirL8z6WfHBSiiy6dyNPbo9xyYoFbH35j7ywuZvK5VfykZVNBbneSz++A29/Fp0QNjZREsy55nquu/32glxvLFOXLuW6O+7g4S9+kb2/+gO6kxOniEgZIbq27mLrE08UTGRTplTi4pJMJYjGIjiOiyqK+ILB3OwpCKOmn2GYgJtLzc/T9R0HJEnIiUuQ8fl8aJqGoig4DmQzJo4toOkaHn1yJgifdCJLR/bzwF3f4ankGTQGB1jz3w/RpcrYGzsR+TzXrqhHyrPpFNm9mykczI8TEMgMRUgODqKHQgUPJUsMDJCIRLAc65DjChKqo9C9cVPBrq3rGoIgIggCjuOQyWTIZrOYppXzspomsqxRXVNDfX396DHbdrBtB0FwEcit4QRJQEAY3VRGEMAFxwVsF3tk9hJFAU1XUBQdRT7oCBkejpJMGYTDJXg8LrKkjJiPMqIooqqT8+s8OUd1FGLRTjo7PJz9kZXEN9xJe+UCvvS3l7H+mz9g9+YO4stqKcmzyEa+GgBISFQQouOBJ/if5EdZcOVqGpcto7ylBU8gf2Fl2WSS7m3b6Nu2jbX/+V9E12+ljkPNoQNjcsYkCOYbRVZoaqinrT0X8CoIwqjgTNPEzGZIxKP4vSpXXXYBsUSCjs59dHTuZcfONkRRQZZlFFVFlEY2pd3ceWRZRpYlRHFk3SXkXP+yLKNrGpqmjngVRTRNxaN7UFV1ZPY8OJYDeCZpitVJJzLXTpGK6fi0BO1vRampXkqZZhKRRQJ+D+Oxe6SjUUs50Sdf44m1L+Gb3kj5jGlUNLdQPX8edUuWUFZfj+73n9B5t/7pTwzv3Utfayv9O3bQ29pKsm0P4axOLeUoE/DnUhSFxvoadra1HfV5pmng8ejIssxA/wC6KhONDMHILCiOmJYg5Pa9RBlNUVE0FVXNufBVRUVVNQQkXNfGtnMOkJwQj37jlCQRjz45N6RPOpGVlM1m1rxf8NidP8S0Apx9dhUv/eYeOnxTuPGUaQTGaTNSRabcDRBOO6Q39TO8qYdebS1veGQcyQFJwltWiur34yktQRBFfBUVHNg3MtMZstEYib4+HNMiG4tjRGNIjohsOHgNmTAaFZQjjeylTQSiKKBp2jvsgR0klU5jGAaimBPEgQ3psQUHBYCR2UcYPZAfvLqGLE+u8KoDnHQiU4NVXPKxz+B7/jXSejPnXricYW+ahqlnc96c8d2IFBCQkQgcWK9lwc26mFgYWFh9A9j0ERcFECHiOjiuAwgoooRgu7koCQRCSHgIIo/LXHz8CIKA1+tD01Qy2fQ7Pi+TyWCYFh5dHjXjREHAHqduyZoqT7oYxgOcdCITRZkpM5Zz/Yzlo8caL716Akd0KAICKgoqYzxdzsjPWAq3jMorgiCg6xqSdPSvSjqdwTRNfF4PoiAgCiBKIvY4NRORZQlxkgaon3Qiw7EY6m/libt+xeNb9tNyxkUsElrZVX0Jf3HxIkL6yfeWJju6rqF7NIi883MsyyKVTBIuCSGIAoIoIIkiJoUXmSCAJIuTNgtkcs6vRyEZ2cfDt/8na+MeZjeFSWWy6FUN7FpzFw8+vwujgJ629yvlZWWEjyP1ZigyPGoqCu8Yy5h/BEHAo2mT1lycnKM6CvFoJ23tAqdffA2rz5gJ+Jh53nnMCZh0d3STKoos7+i6RnlZ2TG/xMPRYWBEYKJQsFCvt6MqMrp+7BZGE8WkEllqaIjsMUSiecooK+nnzQ1v0NEzTDo2QOe6p1mbVCivr0CfpCbDyc78ebPxeX0czY8xOBgZddeLQi7GsJC4I9ElUypLCYeCBb3Wn8OELGBse4iXH3qG7rcd7986zHl/fxMzjhIHGCpv4YLrr+F3v/oDd3YN4gDfe72S8264iAtWzEAfpzyrY+HgkMYgXwFGChIqyoS58n1eL+UVFQxFhnHdzBGfMzw8Yi4eWJMV8Ibnui6pVAq/z4vPMzn3xw4wISLb9+Jv+fEvHmf4kKO1XPqJW6g5xj6XqHiYe/pqPlO9gH2R+IiTLsj0hc2UTKKwmgwG++gfzSP7c1EEhVq3DB8TE9WQSqXx+bxIskQ0lkQ7wmcdjUYRyJVWEBAQpMIZSj29vexq38mFF1xQsGvki3H/VhpGF689vpWShR/nq9dq3HX7Zm765kfoe+Tn3Lupk49dvvSY5xBFjappsyh8yuK7x8VFry7nyxvfoG/nTqw/ozJTaVMTb6xZw7Pf+T5VQw5edKTxtvQFAVmSqa+rY2BwiHg8jmPbOHaukI4LpDMZXNfNmYuSiCTmx6pwXRfbcUimUvT29rJ3byft7Ts5ZeEiQqHgSCTJ5GUCbv25TCJXtdDLp9HgfY7OQS9zG6vQX+hgn2Ux4xgmXzayl5de3sO0MxdR7cZ44aVXKZ33AebXTL4uMn07d/Kbj36MZPved2XqWYLD8k//FafeeCOa389z3/k+qT1RygmNq9BCoSD9A4N4vV7qauvY2d5GyjSxXAlHVnEEnYyrkspkD25G/5mOD9t1GUqkSWWyGNkMkf4eBrr347o2oZIwCxcuwLbdgsZu5oNxF5kkldE0y0fP/67jpfb5nDrX4b//81951uxnuOESao9hLlqpYZ65/yf88ok4H58+k5DYxhOP3MPgc9u5+S8/xcqpk6/2o4xMNWUkeeeIiXfCcm1eueu/6XrrLS79xje5/Lbv89j/+yqRPTHCmfFbi/i8HizTYng4Sl1tNVnDZG9XFykLMq6MIKpEFY3bH1uPJkm4NlgldeiujmBkEV0L3JECO2OyCWRFQdF9yJoHV9FJihp9JqRTNplsmmw6iZGK4xoJRCOFoqqoksjK006nrraejGGiKJNnmXAkJkBkOktu/g6fCfwIq6KSZcs+Tduuu2hlBTfcci6+Y8xiA92v8czvuzjz1k9z7tRyVOkM/vnLGT71d/fw0ivbWVi/CN8kK6YikiuBNhy0aVi6FE9JGI4RCZEczq1YM8PDJN/YQuL5TfzPh67l4u99myt+eBvP//BHdD37KpaRP+fKsaiprWbb1m2YpklDXQ2hkjBdA1H6EmkyjoQpKuwbSGBKGo6so5fMIdQQpCTop6wkQMinE/Co6IqM6zgYtk0ibRFNphmMJRiMxBiORkkmIwhGCsFwkWwXSRJRNA+6LlNVEuDURYuZNm0qpmXh8/mPuD6cTEzY6M7+0GdGfqvgln/7t+N+nSDq6CFntKgmQNZ28LsOjmVP6milKfPmcd2Pf0zVjBnH/ZrWF17g52eeT7kdINqb4rHPfYlTbvowZ33us7zs+xmbH320gCM+lHmzZ7B161ai0WGi0SjBYIjG6nI8sTTRtEnCdEjZLpZoYwkGViZGxMgSjcXoGdCRFRVlpG4HLtiOg2EYmEaWbCaDmUmDmUGzUohuFlEwkAQbr1ejzBdi1pQS5tWV4RezmO3r8akKsu4lKQ/hlE9BK52CJzD56nyMu8hMs58XfvZrNoXP4parFhJQFOzMEC88ch/PdtXy6b/5IGXqO28shsumMXd+iIcf+Ckda+9FFMCM9zEYDHH54ll4J+mu/1gs06T9xRfp2br1iI8vuPxywoe1RBUoI4A6lGLjXb+md8cOzv/qP+AILuI4tQyuHEnvFwSBVCpFPBbFFUQqp1QTKvNhuCJJ06U/kiBjG5huBkdUcCwJOy2RFSTSI57HXLFTJ2c6OjaSYyLZJqJjItlZJMHBo4nMnTOLqqBGZaqLivQ+5H27EWwDz0jyp+tC9+7XETUPcqCU6jMvIVjXgjKJcsvGVWQ97RvoHBhg01ub2RwOsaHJxidJOE6KXa1ttG1LEXUvoOwo51CDU7j6C19n6poH+OPWTmzA4zmXv/27a5kemHyOjyNhZbO8cf/9rL/9rkOi7l1csphUzZx5mMggF3wcxIcvrdP95Mvc2/4JLv32twjWj0/xU1lS8Hg8mGauYI3j2KSzKbZv2YRl22ial8VLllDjD5NIZ4imsliOSSqbIp0xsN2RWOkxjgpJEFEkEY+uEgz48CgKHlXE79FRZZEpbhzf7lfQrTRaMEygrI5QTTOq7s8lbzoOqeEeIl0dJPZ0suXn36dk1iKaPnAFvqpapEmwbzquIut88zFu//nLDAJ0PMh333jwkMenXXA+Vcf4UJLD+3nlqScZrF7GP1xzC+okzSE6HlRktDHR+jYOJtZRXpFDQqLGLaV/5wCPffErLPr4jVTPmoU3WNioB1EU8eg6sTHNFA5gmyZDiV5CPpXyigr27N3HUN9+BgcjuUKsroQiyciKCrg4Tu58iiQhSyKK6yBlHLBlDFMknk1RMrwPYp1IHo2K6Qsor5+B5g8d5qPVprQQrGgkMdRLT/tmejasIxmJMOvqjxOubSjoZ3I8jKvITrnob/narPN49hf38FbpmXx09Tz8Y5wU/tJq9GOYe/GhVp66+wl8103jskIPuECIksS0VavQ3iFzOtxw7C+GiEAFIRKdSV6+7Xb6Wndwyb/8CxUtLQWLRhfFXKb00YjH40xraaZf13DMLAP9PThOruGEOFKwVBRFBEEaKWp6MCvaVjVsXUPXVHyJAUp7d6J7PDQvXEW4uh5RksG2j+jmEREIlk5B9wSQJI09W97Ale5m/nW3EKiY2B3VcRWZ5g3TMnclTd+ZT9v6LUTi8UOyJ9764yss+NR1Rw2r0rQAoVI/0WictGWjn6QzWXp4mMFdu3J+xzGacFwXM32oq9/GIUkG8Qj7YiICZVGZ1nsexnVdbrjjDjwFmtFUVaW+roa9+/a/43P6+vtzJbpFMVdhShRxXHvkPbo4tgVIiLmGAEBuL1kUhVxQsSAgGWlCHW8hYjBj1SWUVY/cdN5e7/GIY9RpmruUTDJF+wvPoZaUs/Caj55Yyb48MyHexd6ND/Pdb/yOnkOOVnD66hs49xjmoihp6F6TF555lDuNXZSOxq3pTJ23ktOXT8U7Cezwo+HYNvs3bqR9zWN4BH3U/LFxiLlJzvjkrYc839dcT/IdMqaNZBJnIEHY9pONx3ELuDGrqipTm5vY8OZbpNOpIz4nEhke0+JIeFeJlFrfPogM0rDiLEorqo9LXGORBJHmeaeyZ/tWtv/xDzSctorKluP36OabCfAu9rHh9+sRp13OFy7WuP+3u7nycx9k/+OP8nrWIXiMPa5sZojIgIFfNHhj3QtjHgmwXGth+fKphX0DeUJSVZyAythQWxcBCc8hKSKNixbx10/88R3Ps+1Pf+Lpr34dIuOzeRHw+QkE/EQiQ0d8PJPJNZ8QR3LKhBPNKTMN5PbNaKEg1U3TEeFd3ThUzUPzvCW89MSjdK5/ZZxFdqhBO+4ic12TbNpBq6xk+ux66oNbMf1zOHP5Zl791SZ2Zc89qrlY2bSKr9+7ahxHnH8kRWHuJZdQNWvWER+vmD6dfZs2YWUOj3YXJImypib8ZTkfbNfmzSMdXsZHZIoiU19bS39/P5nM4REstm1jmEbO7BuJYeQEqmeL0SGMSIyy6bMJlZS+65lZAMoqa9A0P5sefZiFV1yDOkFu/QmI+AhR3eih9+WXeK1nFsunGTzwyzt5LbOLeOVKKo8xk8UGtvOn+555m6kJoNO84EzOXtlyTOfJROPYNrvXrWPDb+5BQWRs2SYbm9q5c3ny299msK39sOxiNeDnwq/9M/MvuWScRz1yfUVBUWQqKsoZHBzKNfYbg23bWKaVMxXfRZCwMzSIbViUVlYjCgJWNsNAdwfpxOEezXciEK6ktLIW3eNFUT10t+4i2ttDRWNhKkwfiwkQmZ8lH/kylxs/wCbA4muv44Uv/het1HPF58+g5BjrqUyij7defJHWMcccM00i4+Ns3yxOWzF10ovMdRzivb2YrftRxqSu2NgMEcfMZIjt68Le0Y3MwY15F5fhkgGMRGIihg2AJEvEEwn8/iDhsjL27NmDM1Kw1IXRoqe5SsHCCXs6rWgUM2Pg8wVyoVepFBtffJF9u49e93EscxYv49RV5SiyDK5AMhYnMTj4/hEZgBas5KbPHgilquNrd5923K+tbDqLr9191iHHhrY+wjd/+DoLlk/HN8kFBiDJMjXz5zN0yVmHPRYGfKWlVJ+ygMgRWgGVhkIEa2rGYZRHxuf1osgKPdF+qmvriGZdunqHsGQJx7KxRkKlRj2MwgnmHtgWkGuNhGVhmxbxuMHQ0PGnCiUTJo5lI0kSgiDi2C5W1jjRt/pn8B5sZ+ttXkwLj7DhlZ0snxYmONmFJghogQCh6uojPixpGoGqKuwjfDG0QABFm7iQIWWkHVQ8kUQTNOqnTsdQ++mLxDAyKTKqQiRj45dHPItirmrw8SL5A0i6TiaZBDsnlMrmFlz/8WdXlNbWIgB2NguiiBYM4glNXEzjuIrMsQyGh9p4+q57+OOurpGjArUtF/HhvzyXltKSY0ZwWGaaWCR+SFxEdmgHOyM2U+zJHB58ENs02f3SS2z8xd3oqAdr2uOSIsOS669n59PPEHlzO9qYP5GLi12iM+sD59G07NjJrYWioa6OLTtaGYgMgWpSVV2LFCxjIJYmaQk80poh7FUIBqcTnBZGifSSjQ2CY+dqMkpSrsuoIqNoOprXj+IJ4Gh+Minw7+0gMjiIY9tosszSRYuwT8ABIsu5YLV4MolhmvhKSwlNmVK4D+QwJtC72LnhcW7/yU/plGdz2rx5OXvddenb9Shf+sorfO7zX+D8+Ue+ux9gYM+L/PtnbuPtobW+phVcunLmMbcAJg2ui2jnupgc+JO4uDgjtw/HshBsG/dts4A7CW4kc+fM4Kln1+I6Jsl4lOG0iRYqp6qykljWIWm5DFoChjdAuLmFyoCHEp8HvybjUUUUMdd4PWOYGK5MPGsRiacYjCZIZT2Ue56jt7eXdDyO1+tFkyQ4wb1P17aJDw+TymSYde65BEonrs3tuH0jTTPKK79fwx5tHjd8/FNctfzgIrRn85/4r5/+mjV/eJVlsy4mdJTQnVDlXK77wheIvu24r3Imi2YcLbR48iBrGguvvJKSIwQBA5Q3N3P6p/6KVOTwaqKyplE9d26hh3hUfD4viiQiujai62Ako8QTSQRvEMVfStATxEDCdHKZzfGMSX88i0dT0VUZWRJxXRfLdkhnk6QzGWLxNOlsFkn1YzfMJDq8j0gkgq5p76p0kGVZdO7ZgytJtJx1+Np3PBk3kdl2L53bbKaesYKV8w79cpU3z2Px1GrWrGulz7mQo1nPnkA1p5539NlusuOYJrvWrWPjfWsQ3LfNVLjMWLWKnc8+R+/mLYeVLFBDQWpmz6FmgoUWCgYZjAwh2yayBYbtkknHiQ/1s/yUuQTD5ezoTxPNZslkJNKpDI4g4rjOqNvfHelHpkgimiJT7tPQJJX0KWdjvPwg23fuJBwMnnBLJBfoHxhgX08PTaedRsP8+fn/AE6AcbStXBxbo8RfymEdblSdUm8AzXaOK8fXcQz6Wt9kU8cAlgN46zj9tFmEtMlb4HIszogLP7a5DS8HPwwHlzhJjFSKvu3bSW7ZdUiUvotLvEQlHR0+0mnHlenTmuno7EByTGQ7i5y1kS0XwwIpG6MxVElscJhIbx+D8Syi6kPWdERJQpAkREFEliRUWUQUQEg7uDi4MliChdEwg8G+Pezs6GBGYyPaUXIMx+K6LsPxOBt37CBQV8cpV16JPxwu8KdxdE6SBcwY7AxbX3iUe+95lDf3R3JdGvUqNm+/lOtvvJwG/8nzlgxMnDGRGi4u1uj/XTIYh6S+uIAkyJOiOtPiU+axs62dbdu2IToOop1FNLIIGRMjPghmDZKRQEoNIsYTuKKEJSkgyqOtlVxZQVRlNFlCUSR0WcZDblYzq+sAg32RCIIs01xVhecYpqPjuvTHYuzcvx88HhauXk39BM/4MO4ii/HK4//FpmfuPOTDcl0HK5PBFo+9X5Ya7uG5h9fQXn0xP/mXy/BpEvvW/Yx/++2TlM86hY+d3RIJkBUAAAxiSURBVJz35kOCIOa1jobm87H6W9/i4n/+5yM+7guH+czTT2MfITBWAPQC540dD+FwmA+cdzaRoQi7OnYj4CK4DoKVJROPYGdSSNk4cnoQOTGEK8iIojQislzai6YqaJaKpirojoLuKmiiikfSkFSd1NSZaP376EnGGe7sZGp5OaU+Xy5c68CNxnWxXRfTttkzNER/IoEYCLD04otpXras4K2Gj4dxG4Esh1l80UWUHCWiWlKmHTPiIzbcRmdrGR/43FKmTClHBjznXc6Cn3+Lnta9xM9ooCTPH2zVgnmk1r6FDz0vFXwFQcATDB41JcVXNvmdONOam7hi9SX84lf30N19MP0lnc5gWRaiABI2omXgYuZKxIm5UCvRlpAEDUlycj+OgOjKiG7OnyoIgCKTaWhBSsaRE8PsTibpTqfxKAqamOviYrsuacsiZVm4skz1okU0LFnClBkzJoXAYFxFVskHb7312E88Bj5/HZW1A7z01k6uPXMWfl2m/80X2KFKnFpfVZAaH6s+/1l+t/5m9FQGf56E9l5h9qwZXLX6Uh5+9A+0t+dCn9LpNJZljTSeEHPT77s0BFxZwSirYurC+VTqMsOdnQx1dpIwD0Yd6+EwDdOnE6qupnzqVDyBwAR3eDnJIz68pfWcecl5dNx/H7fcdA8j/ilaFpzDuSuaUQvw4c46/3zO+8Y/sfa7P8DsTRDAizyBLWYnG8uWLqauvoZHHnmcZ9euHZnJ7BGzTuLd9q0VBIFwSZCFc2cytakeTVVxly0jnUqRTSZxbBtF0/CHQiPOFCGXvj3JOOlEJik+Tr3kZqqqmli7ZR+mAwRncOVlyyn3Fsa7qHm9nPHJT+IvLeXFu35K1xvb8RsKPkdDRT5ixvI7kUkmiQ8O5m1sqWi0oImax4MoitTV1HDLzR+hqbGenW1to1nOonSwqtSJnK+hdgr1dTXMmzODcMnBTR1BlvEFg/gmwbr0nZngfLJ8IMsepq64iKkrxu+aus/HiptvZuppp7H96ad547f30rV+I2LWJoRvZHY7+nqyd9s27vvrv0Y+Tnf08ZDo7ycTi+HDl7dzvls8Hg8XXXg+ZyZWMjAwwJatO7Bdl8hwjFj86JkDuq7T3NRAZUUZM6Y101hfSyDgnxTVpv5cThqROXaGnh1rue0/Hqbp6i9y6xllPP7zb/DLp3cDZVz75c9x6ZI5BLTCmgtVM2dSMW0aKz/xCbY+9RTbn3iCXf/3At2xOG48iRgz8JgSNjbOyB6Yg4OFQ1lExn65Pa8NXhWgFB/GcVS5Gg9EUSQYDOD3+2hsbODCD56P69qkMxn27++mt6+fwaEogiBQUV5Gfd0UKirKURUVaaQLTD7q6E8mThqRJXu2ce/PfsNe/3wuLBPoePE+7nu5l0VnX4q/72Ue/MmPkP/ma6xeOgW1wHc/Ucq5oBdeeikLL72UwT17iOzdS6Szk6GODnp37iTa1YU0PIzi8VAyfSoxb1fB1nAuILouwerqSbGHBoyKJPenkFBVlVAwyJzZMyd0XBPBSSEy2zbYt2MzO3c5nPOFD7Fqtsb9t21D853KNTffyJTeSrb/vzW0b9tN5tQqxjvuo6yhgbKGBjj9dBzHIROPk4lGSUejVLS0cPV//AeWeQI5+O8SzetF80282VjkpPQuOhiZNKZRRUutH2NoLzv6B/HOvJgaj4BWWU+FK+CYE18LXxRFvKEQ3jH5S1Uz33937/c3hzo+8mb4FtZIEZBVFVndR2vnMPvbd9DfNcSM+dPxSwbt//s8W0QBf0UJ2iQxl4oUOcBJMZMJgkLj9HnUNj3L87/+IVvEOF36Ym5qElj7wE+558F1lFSs4uyzWvC8B7xRRd5bnBQiE0URf+Op/N2XPs1tv3yMGPO5/srVLGkKsrG9gqal1/MXn7yYar9noodapAgn6Zosh1p7Kn//1VMPObbkwhtZcuEEDahIkSNSoDVZkSJFjkxRZEWKFJiiyIoUKTAn1ZpsorCNCDvvuo2tv3gMA5BWXM7pX/k8NfUHglRtsgO72fyD79L25OsjFnkTjd/9BqeeORNFlSAbZ/tP/ok3fy2x+JF/ZEbdoSnxhtHKs6tuInPO9Zz5lc+SeeF21v3TL48YLKV+8DK8r7/C8EDfYY+J5bUsuPN+ZjWdHKUY3g8UZ7LjYM+93+S5T99OXCnBVxUm+dD3eeDGfyGSykUhDrc/y4NnTOflX61FnVJHoLERRd3IG1cu4w+3PUwy7eA4Fpmu3Qxs2E0qe3j0h+OkiW7cyFBnF6blIvtK8Dc2EmxowI7tZmBnD25JBYHGRjylGokdWxja04NUmbve6E9dDYpS3CucWE5i7+JEMbD5MayKhUz/5o9ZsiLAG3//F7zx43vYvudfWTZ9mPZ//3eG4tOY8Y0fc+aHz0bXJeK7n+flv7+ett/cQes5y5k/78T6WVeuuokLV90EjsVrXz6Tl5+qZ94Pf8D8eXVks60884u7UJuXseRnv6W5Znwasxc5XgroXXRPJGnoJKJ82lmI6fVsu/UyXvzfXmb8zfe5asMfmd+oYu/fQscL2/E0f4iWS09H13Ob4YGpZ7Hgr7+ItH0Hnc+/RTafofcjuEaG7EAfqf7+0Z90LDXhoWXvd94ug7zNZJLHg/UO3RdPdmo+9A8s3buHLXe8zNarFrO1ejEz/vZLnDpjHqplYjug+ebgKzn0nqU1zsFr7SXeuxvHWp73cWVffIynFx5aw9J3852svuNjlE5g+9b3O1YqiTQmUDtvIlP9Acx4PF+nm1RopU0s/od7qDr1GYbbW9l9///Q+tXPI5y6glXTAFwssx8jA2NTAJxEDAMolDEnz1jEzFv+goqwMubYGfgmSQGZ9ytmPIbiP5i5nT+RlYRJ7N+Dmc1OaBPsfGOau3junKsYaLyAM771j8y/9HIqZgeI3fqPDK1vJ3VaPWVVYVp7H6d/23WEZ5is/+ZXUJd+CnX7v5OWawlXNHKCvfCOC7m2mcabbi2uySYRjuOQjUTQxhRUzZvIKubOo++N10n19hBqaMzXaSccRWmm8iIfO//xIdaXlxBfVMr+h9eQ2KvRsmQqJYEWFvzrp+i8/JO88tlPYd94GUL/IJtuOAcbEWX5DcxdvQLPqMdvD30PrWFb1YE7nYzWvJiyhSe+nrV7Otl3/2/Ihg/+GQXNS+nZl1BZOXHtld7PJLq7iXV2MOuss0eP5U1kvupqRFkm3df3nhIZQMtHfsDghq/Q+qOvkmv4NJ3az/0ri8/Ivc+SxTdw7p0J3vrBL3j105881LckCG9LVn6d1i+/PqZTaJDSj3+XVd9bdsLjMre9xqbP3nLIMaGqiUUPriqKbIJI9XSDIBKqrx89Jrh5cgla2Szbfns3meEoC//yVtT3UIau4ziYsSGy0eSIgFTUijI8Y6tjORaZwQGMVPagyIwkHb/7EftC53PurasRU4Nk4oc3W5e8YbSwRnZ/D643gKe0BFk66ETJDHaRzch4KkpRVRmwSO3vxrQO9yMKgohaWTPq5SwyfhipFG/9/KfIHi9zb/wo8siyKW8iAxhqa2PTXXcw4/oPU7N4cb5OW6TISUH/5rfYevevmX/LJyidPmP0eF73yYINDVQsXMju3z9Morc3n6cuUmRSkxoaoPXB+ymbPYdAfcMhj+VVZLKqMuuaa1H8fnas+R2poYF8nr5IkcmH45CKRNixZg2ipjH1stUob+unlvfYRUnVmH7NtaT7+9nxwAMk+/vzfYkiRSYNyaFB2h5+kHhnBzOvvR7fEXqh5XVNdgDHtunftoX2hx5CVFXm3PhRgrW1+b5MkSITSrynm613/wYzHmPaFVdROX8B4hFqzBREZAA4DslolB333E2sczeVi5fQcM65aMEgkqa/pyrEFnl/4DgOdjZLNhplz/+tpe+1VwnUNzLzuhvwlpYeUWBQSJGNYGUydL++nq51L2AkkvhraglPm46/pgbZ40HyeBAKEQ5RpEg+cBysdAornSbZ3U2kvY3E/n3Iuk7N6WdQvWzFMSOcCi6yA6SHhoi07aR/y2biHR0Y0SgILpKqIYjF/KcikxPXcbENA1xQgwECjU1ULlxIuGUaerj0uM4xbiI7gG1ZuLaNbZqkolHMaBRnglv/FCnyTgiSiBoI4i0pQVIUBElCGukYetznGG+RFSnyfqPofShSpMAURVakSIEpiqxIkQJTFFmRIgWmKLIiRQpMUWRFihSYosiKFCkw/x+ZoBQV3XFCzAAAAABJRU5ErkJggg==;" vertex="1" parent="1">
                    <mxGeometry x="40" y="455.5" width="217" height="110" as="geometry"/>
                </mxCell>
                <mxCell id="51" value="" style="shape=image;verticalLabelPosition=bottom;labelBackgroundColor=default;verticalAlign=top;aspect=fixed;imageAspect=0;image=data:image/png,iVBORw0KGgoAAAANSUhEUgAAALIAAABlCAYAAADpsbn/AAAdwUlEQVR4nO2deXxc1ZXnv+/VXlJp3yVbi7XY8m4MBLMYzBLbQGCAEJJA9k5CQpJPks908sn0TM90d5KedCY9vU0Hsic0gSSEeFgnYMABG7CNbWx5t2xrl6xdKtX2ljt/lEr1apFUkiW5rLzf51OfenXfvfedW/Wr884999zzJCGEwISJyxzypRbAhIm5gElkE4sCJpFNLAqYRDaxKGCdy850Xcc/OIgy5kX1+dCCQZjvuaQAIfT5vYaJi4YtOxuL3U5GfgE2t3vO+58TIge9XgZOnaT3vUMMN59B9fsRmo5styPJ0lxcYlIIXUeo2rxew8TFQwgdySLjLizGs6SC0k3XkVtVPWf9S7N1v+maRsjrpXPfPjpe34nq85G7YgX5q9aQUVZOZn4ekmyB+eUxmM7DywK6puHt6yUwOEDv3r0MnW3G7vFQcfOtFK9eg8Pjuaj+Z0VkXdPoP3WScy88T3BokJJrNlFyxZVkFBYiy6bZbWJq6JrGSGcHXXt2M3jqJM7cPCq3bSe3qhrZYplVn7MicteBA5z89eN4qmuovf1OMsvLsVjn1Nw28WcAJRhkrKebsy88z1h7G8sf+jiFDctn1deMiKwpCl379nLqN09Stf0OltywGZvTOasLmzARQcDr5cyOZxg4epSGBx6goHHVjBXjjGoPnG3m3AvPUrb5Jmpue/+MLmTCxGRwZmZSd/c9nLFYOP37p3Fk55BTWTWjPlI2aLVQiHPPP4eruIzKLTfPWFgTJqaCIyODqltvw5bpof2NP6Epyozap0zk9n3v4Ovuovauu3BlZ89YUBMmpkNGfgHL7riTvsPv0XPk8IzapkTkwMgIna+/Run7rsFTXjErIU2YSAU51TXkr1pF15tvzKhdSkQeOncWX08PZddvxjJL94gJE6nA6nBQfuMWRjvaGenqTLndtETWVJXB48fx1NTgKSy8KCFNmEgFeUsrceXn07Nvb8ptpiVyaGyMkbYWcuoaLko4EyZmgqyaGny9vSihUEr1p9fIgQAhr5fMsrKLFs6EiVThKinD39+H6vOlVH96IgeDoKpk5OZdtHAmTKQKh9uNMjKCGvCnVH9aIgtVRZJlJIsZQ2Fi4eDKzkYPhRCqmlL9lNkpSfMdxmbCxOxhRvosEmg6eP0KuhAoGshS+GWRw0rIKoPbabvUYs4bTCJfxlA0nTPdQbpHBQM+HW9AQ9dB0UGSwDJOZFkCqwxL82yUZMlU5Nlw2BbXeoBJ5MsMIVWne1jlWGeQkxd0vCGBqoEmonsY4sMZI+Wn+0LYLFCUGWRNqYWqQjs5bis26+U//zGJfJlA1TS6hzWOtAc50qUxFudelSY5NkLTw6/WQUH7kEpph0Z9ocTGajeZzsubCpe39H8m0HQ40hZg91mVvjExJ7u7dAEdw4ILo4J+n4+NS22U5zmwXqbeKZPIaQ5fUOOtZj97zqsoGuFd6REP0myPI3spJImQJjjcqdExpLO5VmdlhRPrZRhPYxI5jeEN6Lx8PMDhDhU9YgMb3aCzPTaUCcK87hsTvHRcQSBYWe7CZr28yGwSOU2h6fDS0TGOd2voc7xTPKKQhfFYwEhA8MrJcED76go3lsvIzFjURNb1EIPtnQwENTJy83CqXnRPCQUZ6e1PVTSdncd9NHVqYbLFnZ/OOyGE4ZyI2tRR0o6XGeoJES7vHYU9zQpum5/6sow5GtH8Y9ESWQ8Mc2j/yzz92NMc6te4+r57qTj5OufrPsBn791CRY7jUouYFKqq0dQR4L12dYJkU66pGvYO64aiKEFFjAZGGIicpC4CzvRpWE+HWJLvwOW4PChy+dw7ZogLLe/x3K9ewHXjfdx3/TIgg1Vbb2LkxWd57d2zBLX0zE7kDQoOd6j4JtmyFjEHdAG6LsLvIupaC78Emjb+MpZrAlUXqPF19cS6Z3o1TnQFF3TsF4PL4+82C3iHeuj35XDzmrVkHz1Nm+6geGkRmRkKPl+AdM0Wd7jNR3O/QBgM4wQNayiPmAdi/MBo9yarH+5LRNtj6MPQcEyFXScDVObbyPPY53ycc41FS+T84irK8v/ASzt2sCTYSodQebZ7mFP2PG6oKsOWhkFQYwGFfW06ui6S3/7HSZh8siYSyiL1iaufrG4MkcebnO3X2Hs+wM0r0n/1b9ESOadiNR9+5GF++73HeLWjH2ih172eL/7Nx7m6thBrmqX2EkDzhRB9Xn2ctLETsijHDEROpqnjtayRyHGaN95rET/xUzXBkfYQ19WBLc2ZkubizR6S1cnS2uv4+mPX8fVLLUwSqBoMjCmMBgQHW3y0DgoueHUiiUWNZI41FeJMgyQaNZ6UkRZGUyShnuE6xj9LU6fK2R4vayqz5nD0c49FS2QAX/dxdr7Vz/vuuJrc0XZefOMg9ZvupKHw0rrfzvWGOH1B4VhnOHJNUZNryBgCEjUvmFSjTkLkCe1M3PnJzRRj3c4hjTWVczX6+cHlSWQh0HR9ytQEgb7zPP3LH/L8QTelmzdi6zrOSzue4sVDXXz20x9jXcXFpTGdKXRdxxcS7Drp42CbwnAg7C2I16QRxNuysSZGcsJOa0fH1x2vZ+wfYomMgFO9Klvn5muYN6Q5kTWGezo4f76LgKE0NOJj2Ce49vYbyJ0k2V3r6bd4Z0+QD3zzS2zMc0Ledv76K2N8+W9e5eCxFlaUrsCxQDEFIVXnZKefF44G6RzWo/YvJBIoBQ2ZcN5wHKmT1HwQIsm5aMP4a4TLBB2DOiFFw57GMcxpTeSQb5RdT32fx/9fM2OG8sycK/j4Vz+Ja4oJm9XmxJEZQglGHW2BUACHPu4VmEe5jVA0nYMtPp47HGDIH5Yl1nxIcfIVOTbWTyBynE0t4gkvYkwM4okcp7kjsg0FNLx+hTyTyLPD6OAJ9v1plKse+BK1o3/ijb5GPrjVw+9+vIsh1YpjCiKXVq6iYcWrvPyzf2D/78KpbwMj/djrVrGusRr7ArjfdB0Ot/r4/UE/3qBISsAY+3UKOzdBiyaQlBhNn2BXEyUy8X0lazNRJgiqghPdAeolmSyXDass0i6he1oTWdeChISDvJJyVlav4O1XAuQtu4trlz7LkXdPM7SxdFLTwlVYx6e+8dc0/OK3vNk9AIC9+lYefGQrpfb5d/Crms6B82P8ep8ffyhu0pagYSPHIoHY4fqTLSkbiG+4drxpQBxBY+4A0YoGmURMHwM+nb9/eZRc9xiNJRY2VrpYXuIkN0PG7UiPuJW0JrLDVUxBbjd73jzAlR9eTtHoY/zHY30MntWoviMf9zRawWotYPOnH2bzAslrROegyotNAbyBRNJMagsbJ2mTaVpiiWyk8GQaNVELT3yKlSOunbEvAfR5NXadUXnnfIjqgjE2VTvYuiqLjDTY1JrWRM7Mq+WDn/sEP31nmILiWjZtWs8Tz7yNXrKFbTfXJTEtdIK+MXx+HUeGDWXMT2JWBBmXOxO3a/6+fG9A5bn3Rmgb0tHiVstgaiIjAAnsFokMO+Q4wWaVGPAJfAoEVQhE3HVxRLbIEnYLyDJI412pOgRUJjwk8ZrXJku4x29QuoDRoEAbF8pIYuP1fIqgqStEc5/Kex0hbl/pYkOV55LGMKc1kUOBfgYC5Xzq/i0U52ZReu8jXHn7Axx69zTaoB/V44xZodM0L/t+80Meffoc2754A3v+5XHOJfRawu1/8QU+eec6XPPktTjW4eOd82rSiVnk2GgSGG/vLhs0FkusL4fVpdGxqVqYkAc7dJ48pMeQzCpDZY7EmlKJukKZogwJmwWCGvSN6Rzo0Dl1AZoH9FitC6wvkfjCpvCf2hcS/N2rITqG47V4cllHgzq7zwU5eUHhkRvgqhrPJdudndZEHu0/wVP/9gwbHvkiFQWZyLKMEurmhX/9EfItn+SRj19DtoHIkuSkdtNWPlM+SsXyEqq+ko83oVcXFfVL5y3WwutXePVEMKwBk2g1mPz2DrB1ucw1lTLx0ZNWC2RaID9DmtDyERJfvVTmlloLJVmxY7JbweOQWZIj01cl+Nk+hVN9eoyG1YwXJxJRF2+TJzdfIqU9XpWfvj2KLuCa2izslyAuIy2JPNx6gF/96FH2nR9h2Ovj3P/5H7z4E1v4didUxhSZ63M8CWSUZTsl9WsoqQ9/XrZk2YLLfrwrSHOfOn4rj7Mz4ydh4ycjxQ1FEtdWhbWpEILeMTjTpxNQw6ZGZa5EUBUT5LNIcOMyC3eusOCwSugiHAbaOiRoHdLJc0msLpXIsMuUeCQe2mDl8YMqxy+Ed50ISIgC1EW4/1jCJsoaOy5Bc7/Cbw6OUprroL7YddHf40yRlkT2VNRz43VbUV172b/3PPlVDVSXZCONf7sOTx5bNq/CPYVpMNzTTNPB04xZSrjqplXkLMDj0xRVo6lTwRvQ0SCJtyDyOVbDRT7VF4QzAgEMB+D7uxQG/VEPRkFG+BUh4dIciVvrLDhtEpouONUreLpJ5bRB695QbeEDjVCUKVOSJXNzrYWOYY1+f6xMEeiEc2QkkzW+foyrUAgOdoT43su9/NN9pQs+AUxLIstyJqve/5+ovW4Txw+2kVtfz9KirBntAug5u5df/8vjnJcLWbe/gayceu6+5xbqi+fv+ScDXo3zfSEUYyxx5D2G1In+XoBct0RkP4gkjWtMw2pcjxd6vNG21yy1kuMK1/eG4JmjCid7Y+3gPS0qJR7Y2iBjlWF1iUxtgUxvqzbRv1FWXYiJa0ZKjXZxjPdEJI6zqSvEgdYxrq/PSeUrmzOkJZEjcGYUsnyNjYHBQdpaBifKgyNeunsGWHvTJrIn0co1V9zNt3/1frxjZ3jy2z/lVGsb39/7B8YsZdz50Ke45/o67HPs1B8K6FzwajF2Z0Kcw3hhMtu5e1QnTGQJjwM+uMbCM00qPd5wXEakgQDsVomVJVHT6miPzjGDyRDp2KfD/g6VjRUWSjwyTpvE1gYrb7aoIGKJDGGbWY8zi2K1cGRciW69yPlf7B1heYmLwqyF206W1kQOBbz86cnv8fMdRxgxlLsyG/ng5z/JxinaWu0usvNcuDKq2bR9OzWaj+M7d7C7exRFE/PyiOxhv06vN7rrOXaWH+cLTnKLfq1ZZWOFTHm2hCxJbCi3UJwpseusyuEunW5vdGFlSbaE2x4dxZk+DUWP9m+MkGsfFowEBCXjcVJlWfIEgeMsi/C2qfg/WowmFjHl0XFGzYzTfSH2twbYtsokMgBjg2d459UOlm/7KEvH9nFguJ6t1zl46fdnsOfnTmkjd5x4g+d/t4tOZYhT+48z7Knj3vsf4ltLK1hWV4VtjrWxrusM+0IE1ckIO8nyMdFbdJ8Pnjik8OF1Niqyw6ZAZa7Mh9bauGqJ4LkTCgc6NTQR9kgYRzCmiKh2jSNeUAXVwFi3DfLdcMErEjSyrotYIsdp42QTv5g/LILBgMbxHh9bGjJwLFBEfloTWVVGGVM9NDau432SnxO7razYdA+BA1/lyJsnuKmxcNJJnG+oi6a9b9Fdfy8/ePy/kOtwYXfYsM2T71gg4Q9qMSSIJ9Rkt2jj54OdGs0DOrfVWblpmZVsh4TDKtFQKFHisfPj/UHeadUMXpGwVs5yhEkY6SuWcFKC6g2Mez/ic2Zo416LeKJG3w0TvJjxx5oiB9oD9HpVKnJNImN35pPt7mbfviNcefcKCgf+gx2/UbjQqpNflzVl0JDFasNmd7HqfaupyM1dEHlVfXxVbBxT+5GT29ECGPALnnwvxKlejRuqrWwoD3smclwS96200dSl0uPVUQ2+s8IMGW2iv9hJWI6LidW7SJkvNL4DO24MkV3Zsdp2hja/gJZBFW8w3nCZP6RXCFMcMnPr+MBD2xChPjLyali/qpB3dzxDi7aSzZtrpwzjVJUAQX8GZYULs0XHIksUZjuwyoYt9iLuFVMednMZ6+kivHs6sijxbqfKT/YH+cOxaG6AggwZj1Oiz6fRNhylYWOxTK6TxOvqgqocC/nuqD19uk/Dq0T8xXFeCwQasX3oRvnj+taTjVMI+n3qxFL6QiCtNbLF5mDVzZ/mf9+kY7NaqfjYX3H9gzogY51m9ai0ciU1K3fy/BM7aMx5Pzm2iF/TRm5xCUX5HubayHDYLMhSdLUsYQcz0WPiCASwosjCcEDQNTIeo6FDv0+wr13lgbVhlSoBmXZoGRS83aqystiCVZYo8ch8aK2dXx4MMuSPmjGNxRbuWGEjc3xiGNIEz50MTazeJazsCUNcRkS+JAFECRPAOLMppMHIWBBwz+xLnCXSmsi+4Rb2vLCH3omSLFZcvZHVVYXTxsN2tRzl7NEuQnTx7W/tMpyZv1gLj10iywnDcbdU4ww/fCgSbtEAtfkyN9ZY+ePpEH1j0OfTyXdLbFoa/Zl0BIOBsEbf06JwZYWVDeVWrLLElmU2PA6JA50qwwGdogyZ2+rsVOWGx6npgt0tCu+0K2jET9LCK4UbK6zUFkS/F4HArwjeblUIavEmUuKfMRJYZLdIZGUsXD6MtCVy17tP8+hvX+HYkVa841+YJDkpfP0l1t79MF/d1jhl+4rGLXz5O40kPtzKTn5ZOfZ5mPTlZ1oo8lhoHVLjfthEAiS1nREsyZZ5aL2TgBqOMnPbJLIc0kS71mGd9uGw5+LCmOB3TUFKPBKlHhm7ReLaShtXlFkJaIJMm4TVEm17qk/jycMB+nzRnSq6YbbnsMJD65wJ4+rx6hzoUPCrsd6MyW1nQY4rvGy+UEhDIgsGzuzh0Z88xSlpGZ/9wXe5pSG8SqQOnOWJnz/G80/+E8+WfYdtq3MnzU/hzi6mfm3xQgpOUZadKyrdHOoMEVT1Sd1siRO/MIYDOt6gINsl47JJ5Lqi7UaDgjP9Kv++109Ii1Job4fC53eofGStg+sqbRRnhhc9nLYwiXQh6PHqvNup8uheX/huIaKEM64DypKEx5FIPm9IJMRghFtP4sEQgqpcG1mOhYuESzsi67pCT/s5+rrgmi9+YoLEANa8Gu6/bytv7v05Rw6c4IaVV8dEv8VDVYc48tKrHO4PsWTVagq851FrNrNhSea8yX/FEgc7Dsu0DumJUW6Ro0kI/narSlANsLzQQo5TIsslE1QEAwGdw10aB7sU+nwiod1oSPDj/X52nQ/RWGSlzCNzVYWNJdkWVJ0wiff5GArE7toGaB4IEzx+WmZ0342GBGOKGI/BSG5OxI+zusBBjnvh6JV2RAZQQyGUUDn1yZKC5BVRLUDxBafM36aOdPJ/f/sznv3jIQb8MlfoOsVH/sTBzLM8/LlPsbZ8flKm1ha7WFNu5/ygErelaXrfbL9f8EpziDdawtFudms4oWBAFXhDybR5lNSagKYelaYeFacVDnba+MLVbko8MjdU2RgOOHl0ry+GjAI4N6hxdtCXKJuhzsQ1DeaEiFaJG48g0y6zusxFxgJq5DR2v9mS5xuz2lLaONp2Zj9vvdbGrV/5W75273qgkK1f+wzFTYfYve8E/nnKxmmzyHzkimzKsi1JXViJ73qC68qnCAYDOt2jGr1jGiNBfSKYR4+48MZddMZyMX7sUwS7W0M8cThAQBFkOWQ+utbF569yk++WYmUyuNAmZNJjZdKTuNl0w/WNrkVdh2X5NjZVL2xu5bTUyGF08/rTT9KcHeu+0bQhTgdCTPeId6Fr6MSmA9AG+uhxW1nqtM9LrEUES/Kd3LEqix/u7icUiX+I016p3qKNFVK1tQUCVYFnT/gpzpT44ConTqvMfSudlGbJ/Ps7YzQPajFyCeMV47RzUlmT1IscPLAul6q8xEnjfCItiSxb7bgzApzYu5sTySrYM6mxW6ck40Q6gF/8IzZlGK84wd+/IRBlDaxbWTOv6QDsVgtbGz0c7vCy62wwmlEoUiHuFj3xHj+RiiHZ+LGhovH2nszkGFPgZwd8HOpS8DhkBMacyiLpJC3+etFrTk5ixt2JEtBYbOeBDXnTfkdzjbQjsizbWbnlQf5xy4MX1Y+rsI5P/uV/o+FXv+PNrvF0AK7VPPilbZTa5j/oe0mug09vKqRjpJtjPaEYosbkl0hqZ0KyZd/Im9FbYGwbr7EBBgOCnWeDE7UmtW0TSG1sEf9HSv7HqSuw8Z1txbgvQZb7tCPyXMJmK2Tzpy5NOgCAdRUZ/OctRfzdH3s41RddZo41A0iNpAbmJ9eMU0Ssxa/MJSNjknbxsib2Hf1QnGnhGzcWcXX1/G1cmAqLj8i6Sv+5N/nBo29w7Uf/gtvqXbz4y//Jcwf6sTmX8uDXH2ZDRc6cB9VPhquqMvnWrfDD3X3sa/MT0mIJMNXtfeI9zv5N1nZqUySuPCW7ONpqOiJn2mX++23F3L02D8clSgmQxl6L2WGk7W3+7R8eo0VkYtO8nH7lp/zstTbyy2vICB7in7/7v3jrzBCavjAPX7DIEtcu8/DdO0vYviIDl02amOWrcZ4ANc5boMa86+OvyHNA4gN4wi44VUSCkcZfIr5euL9I35N7JPQJj8qEdyKuHuMLH/96dykPXll0yUgMi4zIuu7n7IFDnOu1cPuDD7K5VmL3G8coqb6Rz3z1a3zuI1ugs5eTp9tQjKplAVCR6+Kbt5TwzZsLuLIiPKPXx0kXdaMRjYoT0ZDKsIsrsTymjOi58OdwFFuyPsMJYkRMv7qxX0O7xPZRl9u9a7L50f1LuXN13rx6gVLBojIthFDwDvtQQ5WsrPGg9R7j6JCf3I3LKXCCUrWCYnU/qqLG3C4XCkVZDh64Ip/tK3N46dggj787xLlBBV9IoGjjK2cTYzGMy/A51q5NHqxv9IoY+4qfDAriy6P9GttGPjmsEh67zIZyF9+4uZR1ZW6yXelBofSQYs4gY3NYkS2tnO0YxXKmiZGRMa7YsIIMOcDB19/ilNPBek/mnIdwpgqbRSY/Q+ajVxaxdUUO73X4ONwV5PxAgJ5RBVUHRReE1NjdG/GkCx/H2sXGyjFkjD2V0Cae4MYyl1XCYZHIcVtZVeLixmWZXF2Vfo9hWFREliQXNY3Lyc59m+d//M9kj7YykrGOtUVeXv79Dv7w7AHK67Zy5dr5iX6bKfIz7WxpsLOlAQKKxqhfDduvWpjMqT26N3mlKZum0G+kitMa3mqV47JdsnRYqWBREVmWLRSuuoW/+rLCf/3hC4xmreWLn7ifhgIrbSN+POvu5UsP30553vwFDc0WTpsFZxoTJd2xqIgMgMVO0fq7ePTRu2KKt3/6L9l+iUQyMf9YVF4LE3++MIlsYlHAJLKJRQGTyCYWBUwim1gUMIlsYlHAJLKJRQGTyCYWBUwim1gUSInIQsQGlJgwkW6YlsiS1YoQOmKBAtFNmABQg0EsbjeyPbWs99MS2WK3IckWgt7EJ9aZMDFfGOnuRrZakVKMUpyWyLLDgc3tZrSz86KFM2EiVQR6L2DL9GB1ppYfY1oiOzxZeKoqGTh65KKFM2EiVQwcbcJTVoYjI7WMRdObFlYrubX1jLV34BsZma66CRMXjeG2VkLDwxSs35Bym5S8Ftm1dch2G1179qCbkz4T8whd1+l48w1sHg+51TUpt0uJyBm5uVRuv4P2115htL191kKaMDEdBk6fpvfQQRo+9GEsM3jscsoLIsXr1mPNyKTt9VdRAoFZCWnCxFRQfD7aX9tJRnk5efUNM2qbMpHtbjcN991P/9GjtL66E01Rpm9kwkSK0BSFll2vM3zuLNW3bUOeYX6+lIksyzIFjY0su+deWl99mZbXdhIcM33LJi4eit/P+Z2v0PLCc6z48IPkL18+7cOO4jHjzafF69aj+H20PPcs/v5+6u++B5vLNdNuTJgAYKSnm/bXdtK9dy8rH/oYRevWzaofScwiiEJXVQZOn+LUb59CIFF5y63kr2jE4fEgz8BAN/HnCTUUIjQyQveB/Zx77lkyyytYdtfd5NU3zFgTRzArIkcw1ttLx57ddO99G6vTRU5dHbm1ddizsrG63VgcdiRpfgPshBBmHMhlAC0YQPX5CA4NMdh8hoGjTUiyTPmm66jZfvtF939RRIawdh5pb2Og+Qz9TU34u7tQA35kqw3ZZkOax8zwEZhETn9ooRBCU5HtDtyFhSy5cQvu0lI8ZeWz1sJGXDSRI9B1HV1VEKpGKBDAPziA4vXGZuObB4jwxef1GiYuHnlV1ch2O5IsI1ksWB2pRbWlijkjsgkTlxL/H4+Tlaf0SXMsAAAAAElFTkSuQmCC;" vertex="1" parent="1">
                    <mxGeometry x="280" y="460" width="178" height="101" as="geometry"/>
                </mxCell>
                <mxCell id="52" value="APP&lt;br&gt;" style="rounded=1;whiteSpace=wrap;html=1;fillColor=#60a917;fontColor=#ffffff;strokeColor=#2D7600;" vertex="1" parent="1">
                    <mxGeometry x="555" y="360" width="160" height="70" as="geometry"/>
                </mxCell>
            </root>
        </mxGraphModel>
    </diagram>
</mxfile>